<svg id="Livello_1" data-name="Livello 1" xmlns="http://www.w3.org/2000/svg" viewBox="0 0 150 50"><defs><style>.cls-1{fill:#fff;}.cls-2{fill:#f9b000;}</style></defs><path class="cls-1" d="M4.24,7.4H19.56A.67.67,0,0,0,20,7.22l4.35-4.36a.62.62,0,0,0-.43-1H4.24a.62.62,0,0,0-.62.62V6.78A.62.62,0,0,0,4.24,7.4Z"/><path class="cls-1" d="M54.31,1.81H34.58a.61.61,0,0,0-.61.62V6.78a.61.61,0,0,0,.61.62H50a.62.62,0,0,0,.43-.18l4.36-4.36A.61.61,0,0,0,54.31,1.81Z"/><path class="cls-1" d="M48.38,20.58l4.34-4.34a.61.61,0,0,0-.43-1H34.58a.61.61,0,0,0-.61.61V31.36a.61.61,0,0,0,.61.62h4.81a.62.62,0,0,0,.61-.62v-10a.61.61,0,0,1,.61-.62H48A.61.61,0,0,0,48.38,20.58Z"/><rect class="cls-1" x="64.31" y="1.81" width="6.03" height="30.16" rx="0.61"/><path class="cls-1" d="M107.39,1.81h-4.8a.62.62,0,0,0-.62.62V19.62a.61.61,0,0,1-1.08.39L85.66,2a.62.62,0,0,0-.47-.22H81.61a.62.62,0,0,0-.62.62V31.36a.62.62,0,0,0,.62.62h4.8a.61.61,0,0,0,.61-.62V14.69a.61.61,0,0,1,1.08-.4l15.06,17.47a.62.62,0,0,0,.47.22h3.76a.62.62,0,0,0,.62-.62V2.43A.62.62,0,0,0,107.39,1.81Z"/><path class="cls-1" d="M130.23,1.81h-11a.61.61,0,0,0-.61.62V31.36a.61.61,0,0,0,.61.62h11c9.23,0,16.15-6.52,16.15-15.22C146.38,8.25,139.46,1.81,130.23,1.81Zm0,24.58H125.3a.61.61,0,0,1-.61-.61V8a.61.61,0,0,1,.61-.62h4.93c5.55,0,10,4.17,10,9.36A9.8,9.8,0,0,1,130.23,26.39Z"/><path class="cls-2" d="M9.78,43.16a2.16,2.16,0,0,0,1.31-2.06c0-1.54-1.16-2.48-3.16-2.48H3.68V48H8.13c2.08,0,3.37-1,3.37-2.57A2.15,2.15,0,0,0,9.78,43.16ZM5.56,40.28H7.7c1.08,0,1.62.39,1.62,1.06s-.56,1.25-1.62,1.25H5.56Zm2.49,6.08H5.56V44.14H8.12c.93,0,1.53.4,1.53,1.07S9.16,46.36,8.05,46.36Z"/><polygon class="cls-2" points="17.65 48.02 24.56 48.02 24.56 46.28 19.53 46.28 19.53 44.26 24.01 44.26 24.01 42.52 19.53 42.52 19.53 40.36 24.56 40.36 24.56 38.62 17.65 38.62 17.65 48.02"/><polygon class="cls-2" points="34.23 43.06 31.64 38.62 29.55 38.62 33.3 44.92 33.3 48.02 35.2 48.02 35.2 44.92 38.93 38.62 36.85 38.62 34.23 43.06"/><path class="cls-2" d="M48.41,38.46a4.87,4.87,0,1,0,4.89,4.86A4.85,4.85,0,0,0,48.41,38.46Zm0,8a3.11,3.11,0,1,1,3-3.11A3,3,0,0,1,48.41,46.43Z"/><polygon class="cls-2" points="66.1 44.69 60.96 38.62 59.56 38.62 59.56 48.02 61.44 48.02 61.44 42.12 66.53 48.02 67.98 48.02 67.98 38.62 66.1 38.62 66.1 44.69"/><path class="cls-2" d="M78.08,38.62H74.47V48h3.61a4.71,4.71,0,1,0,0-9.4Zm0,7.66H76.35V40.36h1.73a3,3,0,0,1,3.12,2.92A3,3,0,0,1,78.08,46.28Z"/><path class="cls-2" d="M101.12,38.62h-3.6V48h3.6a4.71,4.71,0,1,0,0-9.4Zm0,7.66H99.4V40.36h1.72a3,3,0,0,1,3.13,2.92A3.06,3.06,0,0,1,101.12,46.28Z"/><path class="cls-2" d="M115.08,38.62,111,48h2l.78-1.88h4.32l.77,1.88h2l-4.06-9.4Zm-.61,5.85L116,40.88l1.48,3.59Z"/><polygon class="cls-2" points="124.56 40.36 127.75 40.36 127.75 48.02 129.63 48.02 129.63 40.36 132.82 40.36 132.82 38.62 124.56 38.62 124.56 40.36"/><path class="cls-2" d="M140.56,38.62,136.48,48h2l.78-1.88h4.32l.77,1.88h2l-4.06-9.4ZM140,44.47l1.48-3.59,1.48,3.59Z"/><path class="cls-1" d="M22.38,16.24a.62.62,0,0,0-.44-1H4.24a.61.61,0,0,0-.62.61V31.36a.62.62,0,0,0,.62.62H9a.61.61,0,0,0,.61-.62v-10a.62.62,0,0,1,.62-.62H17.6a.66.66,0,0,0,.44-.17Z"/></svg>